<?xml version="1.0" standalone="no"?>
<!DOCTYPE svg PUBLIC "-//W3C//DTD SVG 20010904//EN"
 "http://www.w3.org/TR/2001/REC-SVG-20010904/DTD/svg10.dtd">
<svg version="1.0" xmlns="http://www.w3.org/2000/svg"
 width="512.000000pt" height="512.000000pt" viewBox="0 0 512.000000 512.000000"
 preserveAspectRatio="xMidYMid meet">
<metadata>
Created by potrace 1.14, written by Peter Selinger 2001-2017
</metadata>
<g transform="translate(0.000000,512.000000) scale(0.100000,-0.100000)"
fill="#000000" stroke="none">
<path d="M607 4943 c-2 -1 -16 -4 -32 -7 -67 -12 -93 -20 -155 -44 -36 -14
-71 -32 -78 -39 -7 -7 -17 -13 -21 -13 -8 0 -18 -8 -95 -72 -86 -73 -156 -186
-198 -318 l-23 -75 0 -1795 c0 -987 4 -1815 8 -1840 4 -25 8 -51 9 -57 1 -7 5
-13 10 -13 5 0 6 -5 3 -10 -4 -6 -1 -17 5 -25 7 -8 9 -15 6 -15 -4 0 12 -36
35 -80 24 -44 46 -80 51 -80 4 0 8 -5 8 -12 0 -15 149 -158 166 -158 7 0 14
-4 16 -8 4 -11 131 -72 150 -72 8 0 19 -5 26 -12 7 -7 12 -9 12 -6 0 3 28 0
62 -7 51 -11 443 -13 2013 -11 1072 1 1964 5 1980 9 17 4 37 10 45 14 8 3 23
8 32 9 70 14 220 108 289 181 51 53 114 154 140 222 47 125 46 80 44 1976 -1
985 -4 1799 -8 1810 -45 156 -88 239 -170 331 -80 88 -238 182 -338 199 -18 3
-37 9 -43 13 -9 6 -3944 11 -3949 5z m313 -691 c21 -9 145 -103 230 -175 14
-12 46 -38 70 -57 25 -19 47 -38 48 -42 2 -4 10 -8 18 -8 8 0 14 -4 14 -8 0
-5 18 -21 41 -38 22 -16 48 -36 57 -45 9 -8 51 -42 92 -75 72 -57 91 -72 130
-104 9 -8 32 -26 50 -40 182 -137 211 -175 204 -264 -4 -59 -30 -95 -110 -156
-33 -25 -63 -50 -69 -56 -5 -6 -50 -42 -100 -80 -49 -38 -92 -71 -95 -75 -3
-4 -27 -24 -55 -45 -27 -21 -55 -42 -61 -48 -6 -6 -26 -22 -44 -36 -18 -14
-43 -33 -54 -42 -40 -33 -102 -83 -141 -113 -21 -16 -47 -38 -57 -47 -10 -10
-22 -18 -27 -18 -5 0 -11 -3 -13 -7 -7 -18 -105 -91 -134 -100 -114 -39 -227
39 -227 157 0 73 21 103 138 197 22 17 87 69 144 115 56 45 110 88 119 93 9 6
21 15 27 21 5 6 32 28 60 50 81 64 87 68 100 82 8 6 16 12 19 12 3 0 18 11 33
24 16 13 45 39 66 58 l39 34 -33 24 c-45 34 -192 152 -205 165 -6 5 -26 21
-44 35 -18 14 -43 33 -54 42 -12 10 -70 57 -131 105 -60 48 -115 92 -121 98
-6 5 -26 21 -44 35 -59 44 -99 90 -109 126 -9 33 -9 45 4 105 8 33 56 89 78
89 10 0 17 4 17 9 0 20 84 21 130 3z m1415 -1353 c2 2 61 2 131 2 169 -3 213
-22 250 -108 30 -71 3 -158 -63 -203 l-36 -25 -386 -3 -386 -3 -45 24 c-82 43
-113 143 -71 225 40 77 77 91 236 91 70 0 128 1 130 3 2 2 56 1 120 -2 64 -3
118 -3 120 -1z"/>
</g>
</svg>
